<svg width="22" height="22" viewBox="0 0 22 22" fill="none" xmlns="http://www.w3.org/2000/svg">
<path d="M7.12427 2.23574L8.1106 1.92041C9.03644 1.62524 10.0237 2.10282 10.4206 3.03599L11.208 4.89499C11.5509 5.70441 11.3611 6.65682 10.7369 7.24899L9.00069 8.89716C9.10702 9.88349 9.43885 10.8542 9.99435 11.8094C10.5222 12.7336 11.23 13.5425 12.0761 14.1882L14.1615 13.4915C14.9526 13.2284 15.8134 13.5318 16.2974 14.2441L17.4276 15.9032C17.9914 16.7319 17.8905 17.8741 17.1911 18.5762L16.4413 19.3288C15.6951 20.0777 14.629 20.35 13.6436 20.042C11.3162 19.316 9.17669 17.1609 7.22419 13.5767C5.26894 9.98707 4.57869 6.94007 5.15435 4.43941C5.39635 3.38707 6.14527 2.54832 7.12427 2.23574Z" fill="white"/>
</svg>
