<svg width="61" height="61" viewBox="0 0 61 61" fill="none" xmlns="http://www.w3.org/2000/svg">
<path d="M17.3278 25.5971L15.6694 30.5H11.4375L18.5364 11.4375H23.4316L30.5 30.5H26.0508L24.3924 25.5971H17.3278ZM23.5574 22.7911L20.9688 15.0823H20.7819L18.1932 22.7911H23.5612H23.5574Z" fill="#0A6EDD"/>
<path d="M0 7.625C0 5.60272 0.803346 3.66328 2.23331 2.23331C3.66328 0.803346 5.60272 0 7.625 0L34.3125 0C36.3348 0 38.2742 0.803346 39.7042 2.23331C41.1342 3.66328 41.9375 5.60272 41.9375 7.625V19.0625H53.375C55.3973 19.0625 57.3367 19.8658 58.7667 21.2958C60.1967 22.7258 61 24.6652 61 26.6875V53.375C61 55.3973 60.1967 57.3367 58.7667 58.7667C57.3367 60.1967 55.3973 61 53.375 61H26.6875C24.6652 61 22.7258 60.1967 21.2958 58.7667C19.8658 57.3367 19.0625 55.3973 19.0625 53.375V41.9375H7.625C5.60272 41.9375 3.66328 41.1342 2.23331 39.7042C0.803346 38.2742 0 36.3348 0 34.3125V7.625ZM7.625 3.8125C6.61386 3.8125 5.64414 4.21417 4.92916 4.92916C4.21417 5.64414 3.8125 6.61386 3.8125 7.625V34.3125C3.8125 35.3236 4.21417 36.2934 4.92916 37.0083C5.64414 37.7233 6.61386 38.125 7.625 38.125H34.3125C35.3236 38.125 36.2934 37.7233 37.0083 37.0083C37.7233 36.2934 38.125 35.3236 38.125 34.3125V7.625C38.125 6.61386 37.7233 5.64414 37.0083 4.92916C36.2934 4.21417 35.3236 3.8125 34.3125 3.8125H7.625ZM34.8386 41.9184C35.5744 43.066 36.3712 44.1411 37.2405 45.1438C34.3887 47.336 30.8622 48.9601 26.6875 50.0696C27.3661 50.8969 28.4069 52.4905 28.8034 53.375C33.0925 52.0063 36.7334 50.1572 39.8063 47.6791C42.7686 50.2144 46.4363 52.1207 50.9769 53.2911C51.484 52.3227 52.5553 50.7253 53.375 49.898C49.0859 48.9334 45.5327 47.2521 42.6238 45.0027C45.2201 42.1548 47.2826 38.7083 48.8038 34.4917H53.375V30.5H41.9375V34.4917H44.8541C43.6417 37.7094 42.0328 40.3858 40.0046 42.6123C39.4443 42.0155 38.9162 41.3894 38.4224 40.7366C37.3465 41.4264 36.1137 41.8329 34.8386 41.9184Z" fill="#0A6EDD"/>
</svg>
